<svg width="540" height="540" viewBox="0 0 540 540" fill="none" xmlns="http://www.w3.org/2000/svg">
<path d="M190.5 72H339.5L340.5 73H370.5L371.5 74L386.5 75C403.967 78.2 419.3 83.5333 432.5 91C447.567 99.2667 460.733 109.433 472 121.5C488.733 138.433 501.4 159.433 510 184.5L515 202.5L517 213.5V221.5L518 222.5V259.5L539 286.5V309C531.733 309.467 526.733 307.3 524 302.5L518.5 296L518 435.5L517 436.5V446.5L515 450.5L503.5 463L497.5 466C494.367 465.133 492.367 465.467 491.5 467H431.5C430.3 465.2 427.633 464.867 423.5 466L415.5 462L407 453.5L403 445.5V433.5L402 432.5V386.5C400.2 385.367 399.867 382.7 401 378.5C398.733 370.767 394.567 364.933 388.5 361L377.5 357H265.5C258.1 359.267 252.267 363.1 248 368.5L243 375.5L241 444.5L239 450.5L233 459L220.5 466H212.5L211.5 467H161.5L160.5 466H147.5C141.033 463.467 135.867 459.633 132 454.5L127 443.5L126 319H100.5L93.5 321L87 326.5L82 334.5L79 348.5V385.5C80.6667 386.5 81 388.833 80 392.5L83 400H102V436.5C100.533 437.3 100.2 439.3 101 442.5L98.5 445L90.5 452H63.5C46.2333 447.6 32.7333 439.433 23 427.5C16 419.833 10.3333 410.833 6 400.5L1 380.5V229.5L2 228.5V218.5L5 203.5L15 175.5C25.6667 153.167 39.5 134 56.5 118C72.7 102.2 92.3667 89.8667 115.5 81L132.5 76L149.5 74L150.5 73H189.5L190.5 72ZM238 95L234 97L243 103C253 112.333 261 124 267 138V140H244L235 128C228.333 118.667 220 111.333 210 106L194 99L178 96H151L132 100L120 104C101.333 112 85.3333 122.333 72 135C56.6667 148.333 44.3333 165 35 185L26 212L25 223L24 224V249L23 250V356L24 357V380L28 397L36 409C45.3333 422.333 60.3333 429.667 81 431L80 414C74.6667 414.667 70.6667 414 68 412L61 404L57 385V347C59 345.667 59.3333 343.333 58 340C60 328.667 64 319.667 70 313C74.6667 306.333 81 301.667 89 299C92.3333 300.333 94.6667 300 96 298H148V433C150 433.667 150.333 436 149 440L155 444H212L216 443L219 439V406L220 405V381C221.333 379.667 221.667 377.667 221 375L231 355C238.333 345 248.333 338 261 334L262 335H378L379 336H389L408 348C414.667 354 419.333 362 422 372C421.333 374.667 421.667 376.667 423 378V421L424 422V438L425 441L431 444H489L493 443L495 439V424L496 423V347L497 346V338L496 337V313L497 312V251L496 250V226L495 225V216L493 205C485.667 177.667 473.333 155.333 456 138C446 127.333 434.667 118.333 422 111L407 104L376 95H238Z" fill="black" stroke="black"/>
<path d="M138 196H155V225.5L156.5 227H186V196H203V272.5L202.5 273H186V241H156.5L155 242.5V273H138.5L138 272.5V196Z" fill="black" stroke="black"/>
<path d="M225.5 196H270.5L271 196.5V211H234V228H267V241H235.5L234 242.5V259H271V273H217V200.5L218 197H224.5L225.5 196Z" fill="black" stroke="black"/>
<path d="M281.5 196H296.5L300 199.5L313.5 221L330 196H347.5L349 197.5L323 233.5L350 272.5L330.5 273L313.5 247L296 273L277 272.5L304 234.5L279 197.5L281.5 196Z" fill="black" stroke="black"/>
<path d="M386.5 196H401V242.5L401.5 243H412V256H401V273H385V256H350.5L350 255.5V246.5L352 240.5L358 231.5L383.5 197L386.5 196ZM384 218L365 242L373 243H384L385 242V225L384 218Z" fill="black" stroke="black"/>
<path d="M79.4997 207C87.8331 206.334 93.3331 208.5 95.9997 213.5C97.9997 215.5 98.6664 218.834 97.9997 223.5L92.4997 233L89.4997 235L80.4997 236L77.4997 235L69.9997 227.5C68.4664 225.367 68.1331 222.034 68.9997 217.5L75.4997 209L79.4997 207Z" fill="black" stroke="black"/>
</svg>
